<svg xmlns="http://www.w3.org/2000/svg" viewBox="0 0 206.612 206.612"><path d="M31.276 122.205s8.933 18.483 6.727 34.142c-2.204 15.659-14.607 23.035-19.898 13.228 0 0-26.014 37.038 85.98 37.038V105.298l-72.809 16.907z" fill="#d65128"/><path d="M177.592 117.629s-11.189 23.06-8.983 38.718c2.204 15.659 14.607 23.035 19.898 13.228 0 0 26.014 37.038-85.98 37.038V105.298l75.065 12.331z" fill="#d65128"/><path fill="#fdcc9b" d="M89.388 156.347h29.395v32.922H89.388z"/><path d="M89.388 160.225s12.364 7.874 29.394 6.05v-9.928H89.388v3.878z" fill="#fcbc85"/><ellipse cx="47.001" cy="105.298" rx="14.343" ry="16.364" fill="#916a50"/><ellipse cx="161.169" cy="105.298" rx="14.343" ry="16.364" fill="#916a50"/><path d="M161.111 74.042c0-24.104-17.637-41.741-57.025-41.741-39.39 0-57.026 17.637-57.026 41.741s-4.115 87.597 57.026 87.597c61.14-.001 57.025-63.493 57.025-87.597z" fill="#fdcc9b"/><ellipse cx="76.31" cy="101.379" rx="6.173" ry="6.761" fill="#3b2519"/><circle cx="73.618" cy="98.394" r="1.846" fill="#fff"/><path d="M66.434 86.802c2.919 1.118 7.606-3.798 18.335.478 1.956.78 3.124-6.668-8.377-6.668-9.958 0-11.722 5.515-9.958 6.19z" fill="#d96e27"/><ellipse cx="132.624" cy="101.379" rx="6.173" ry="6.761" fill="#3b2519"/><circle cx="129.932" cy="98.394" r="1.847" fill="#fff"/><path d="M141.736 86.802c-2.919 1.118-7.605-3.798-18.335.478-1.956.78-3.123-6.668 8.378-6.668 9.957 0 11.721 5.515 9.957 6.19z" fill="#d96e27"/><path d="M104.086 125.159c-6.1 0-9.774-4.556-9.774-2.352 0 2.205 1.764 6.394 9.774 6.394s9.773-4.189 9.773-6.394c0-2.204-3.674 2.352-9.773 2.352zM104.086 145.43c-2.109 0-3.381-1.576-3.381-.813 0 .763.61 2.211 3.381 2.211s3.38-1.448 3.38-2.211c-.001-.763-1.271.813-3.38.813z" fill="#fcbc85"/><path d="M104.086 139.813c-9.668 0-15.493-3.936-15.493-2.939 0 .997 2.796 4.924 15.493 4.924 12.697 0 15.492-3.926 15.492-4.924 0-.998-5.825 2.939-15.492 2.939z" fill="#f7945e"/><circle cx="68.372" cy="122.984" r="8.378" fill="#f9aa8d"/><circle cx="140.829" cy="122.984" r="8.377" fill="#f9aa8d"/><path d="M104.086 169.575v37.038H39.712c0-14.992 30.569-37.038 64.374-37.038zM104.086 169.575v37.038h64.372c0-14.992-30.569-37.038-64.372-37.038z" fill="#f6a2b1"/><path d="M89.388 170.857l14.697 26.276c.879 0 14.697-26.276 14.697-26.276s-15.247-5.552-29.394 0z" fill="#fdcc9b"/><path d="M89.388 166.55l8.535 8.928 6.162 21.655-8.818-13.228-9.921 5.365-8.597-15.461c.001-.001 7.421-6.757 12.639-7.259zM118.783 166.55l-8.536 8.928-6.161 21.655 8.818-13.228 9.92 5.365 8.598-15.461c-.001-.001-7.421-6.757-12.639-7.259z" fill="#f38191"/><path fill="#f38191" d="M104.086 206.612v-9.479l-4.851-7.275zM104.086 206.612v-9.479l4.458-7.275z"/><path d="M146.826 17.016S111.513-9.659 68.372 3.789C27.35 16.575 26.483 70.81 27.805 101.381c1.323 30.571 11.907 34.244 22.487 29.981 13.994-5.638 0-23.222 0-23.222 6.614-6.761 3.969-19.206 3.969-19.206 10.361-.384 14.11-17.244 14.11-17.244 20.156 7.769 25.939-7.496 25.939-7.496 18.886 10.141 33.774-7.937 33.774-7.937s9.303 19.342 21.121 17.196c0 0-3.107 18.597 4.262 21.165 0 0-7.895 23.81 2.446 31.085 10.341 7.275 27.096.042 26.655-36.77-.44-36.811-7.056-75.445-35.742-71.917z" fill="#d96e27"/></svg>